<svg xmlns="http://www.w3.org/2000/svg" xmlns:xlink="http://www.w3.org/1999/xlink" viewBox="0 0 455.88 204.31"><defs><style>.cls-1{fill:url(#Degradado_sin_nombre_100);}.cls-2{fill:url(#Degradado_sin_nombre_102);}.cls-3{fill:#161c27;}</style><linearGradient id="Degradado_sin_nombre_100" x1="322.48" y1="41" x2="511.65" y2="229.38" gradientUnits="userSpaceOnUse"><stop offset="0" stop-color="#0cecf2"/><stop offset="0.32" stop-color="#08badf"/><stop offset="0.62" stop-color="#0592d0"/><stop offset="0.85" stop-color="#037ac7"/><stop offset="1" stop-color="#0271c4"/></linearGradient><linearGradient id="Degradado_sin_nombre_102" x1="212.19" y1="-33.37" x2="419.56" y2="178.76" gradientUnits="userSpaceOnUse"><stop offset="0" stop-color="#ad64e6"/><stop offset="0.21" stop-color="#a462e6"/><stop offset="0.56" stop-color="#8c5ee5"/><stop offset="1" stop-color="#6457e3"/><stop offset="1" stop-color="#6457e3"/></linearGradient></defs><g id="Capa_2" data-name="Capa 2"><g id="Capa_2-2" data-name="Capa 2"><path class="cls-1" d="M353.77,0h-.72a27.76,27.76,0,0,0,.36,55.52,74.72,74.72,0,0,1,17.28,147.42l.48.48A102.49,102.49,0,0,0,353.77,0Zm-.36,49.76a22,22,0,1,1,22-22A22,22,0,0,1,353.41,49.76Z"/><path class="cls-2" d="M353.41,70.31a21.53,21.53,0,1,0,0,43.05,40.49,40.49,0,0,1,13.24,78.74l.65.65A62,62,0,0,0,353.41,70.31Zm0,38.59a17.06,17.06,0,1,1,17.06-17.06A17.06,17.06,0,0,1,353.41,108.9Z"/><path class="cls-3" d="M17.42,116.29A19,19,0,0,1,5,112.2q-5-4.1-5-11.69Q0,92,6.31,87.61T26.36,83l6.44-.1V79.85a7.09,7.09,0,0,0-2.07-5.47c-1.39-1.28-3.54-1.9-6.47-1.87a13.53,13.53,0,0,0-6,1.5,7.84,7.84,0,0,0-4,5H2.2q.39-8.39,6.74-12.38t16-4q11.84,0,16.82,4.37t5,12v36.29H34.59L33.4,106.4q-2.66,5.59-6.62,7.74A19.37,19.37,0,0,1,17.42,116.29Zm4.89-9.59a10.73,10.73,0,0,0,5-1.22,11.72,11.72,0,0,0,3.92-3.19,6.73,6.73,0,0,0,1.55-4.22V90.43l-5.24.1a29.07,29.07,0,0,0-6.79.85,10.9,10.9,0,0,0-5.07,2.67,6.69,6.69,0,0,0-1.92,5,6.85,6.85,0,0,0,2.47,5.61A9.25,9.25,0,0,0,22.31,106.7Z"/><path class="cls-3" d="M59.9,115.29V63.67h14V75.9A21.55,21.55,0,0,1,80,66.57q4.29-3.9,11.23-3.9a2.57,2.57,0,0,1,1,.1V76.7a4,4,0,0,0-.9-.15c-4.26-.36-7.62-.11-10.08.78A9.58,9.58,0,0,0,76,81.22,11.06,11.06,0,0,0,74.43,87v28.25Z"/><path class="cls-3" d="M97.49,115.29v-8.14L123,73.86H98.84V63.67h41.78v8.14l-25.46,33.3h25.66v10.18Z"/><path class="cls-3" d="M171.47,116.29a25.84,25.84,0,0,1-13.2-3.25,22.18,22.18,0,0,1-8.71-9.18,30,30,0,0,1-3.1-14.08,31.36,31.36,0,0,1,3.07-14.23,22.85,22.85,0,0,1,8.69-9.48,27.66,27.66,0,0,1,26.48,0,22.43,22.43,0,0,1,8.64,9.41,31.63,31.63,0,0,1,3,14.35,30.7,30.7,0,0,1-2.94,13.75,22.22,22.22,0,0,1-8.54,9.36A25.33,25.33,0,0,1,171.47,116.29Zm.05-10.83a8.49,8.49,0,0,0,6.14-2.25,13,13,0,0,0,3.42-5.92,28.21,28.21,0,0,0,1.08-8,29.5,29.5,0,0,0-1-7.71,12.6,12.6,0,0,0-3.29-5.89,8.74,8.74,0,0,0-6.37-2.27,9,9,0,0,0-6.26,2.14,12.4,12.4,0,0,0-3.45,5.74,28.08,28.08,0,0,0-1.07,8,30.39,30.39,0,0,0,1,7.76,13,13,0,0,0,3.35,6.07A8.79,8.79,0,0,0,171.52,105.46Z"/><path class="cls-3" d="M248.5,63.67l-19.37,51.62H218.6L199.18,63.67h13.18l11.28,32.9h.4l11.13-32.9Z"/><path class="cls-3" d="M24.31,204.21q-9-.09-14.48-4.59T4.34,185.94V151.5h3.9v34.44a14.45,14.45,0,0,0,3.87,10.49q3.86,4,12,4,7.14,0,11.53-3.74T40,185.14V151.5h3.89v51.72H40.29l-.3-9.49a14.1,14.1,0,0,1-5.35,7.66Q30.71,204.27,24.31,204.21Z"/><path class="cls-3" d="M62.35,203.32V151.7h3.59v7.69a19.21,19.21,0,0,1,5.4-6.07c2.32-1.75,5.49-2.62,9.48-2.62a20,20,0,0,1,6.07,1,17.77,17.77,0,0,1,5.54,2.9,11.44,11.44,0,0,1,3.62,4.72,16.56,16.56,0,0,1,6.46-6.32,19.13,19.13,0,0,1,9.36-2.27,23.58,23.58,0,0,1,5.52.7,14.26,14.26,0,0,1,5.46,2.67,14.05,14.05,0,0,1,4.17,5.77,25.88,25.88,0,0,1,1.62,10v33.45h-3.89V169.87q0-6.24-1.82-9.56a9.93,9.93,0,0,0-4.74-4.57,16,16,0,0,0-6.32-1.25,20.46,20.46,0,0,0-6.31,1.1,12.6,12.6,0,0,0-5.77,3.9q-2.4,2.79-2.4,7.88v35.95H93.5V165.78a9.75,9.75,0,0,0-2-6.29,12.41,12.41,0,0,0-4.94-3.75,14.9,14.9,0,0,0-5.84-1.25,18.44,18.44,0,0,0-6.59,1.28,12.94,12.94,0,0,0-5.62,4.12,11.64,11.64,0,0,0-2.27,7.48v35.95Z"/><path class="cls-3" d="M159.79,204.31q-7.64,0-12.1-3.79a12.9,12.9,0,0,1-4.47-10.38q0-8.69,5.62-12.66t18.44-4.42l11.93-.4v-5a12.91,12.91,0,0,0-3.62-9.56q-3.61-3.62-11.15-3.62a16.66,16.66,0,0,0-9.64,2.67q-3.9,2.67-4.74,8.32h-4.19a14.75,14.75,0,0,1,5-10.74q4.64-4,13.73-4,8.28,0,13.35,4.12c3.38,2.74,5.07,7,5.07,12.75v35.75h-3.6l-.15-10.49q-3.34,6.45-8.58,9A25,25,0,0,1,159.79,204.31Zm.65-3.69a19.43,19.43,0,0,0,6.54-1.17,23.64,23.64,0,0,0,6.07-3.2,18.76,18.76,0,0,0,4.47-4.52,9,9,0,0,0,1.69-5.09V176.56l-10,.2a51.07,51.07,0,0,0-13,1.55q-4.77,1.4-6.81,4.21a12.13,12.13,0,0,0-2.05,7.32,9.53,9.53,0,0,0,3.6,7.93Q154.5,200.62,160.44,200.62Z"/><path class="cls-3" d="M220.35,155.09H208.51v36.64a15.62,15.62,0,0,0,.63,5.22,3.18,3.18,0,0,0,2.34,2.05,22.35,22.35,0,0,0,5,.42h4.39v3.4a11.63,11.63,0,0,1-2.67.4c-1.14.06-2.35.1-3.62.1q-5.84,0-7.91-2.7t-2.07-8.89V155.09h-8.39V151.7h8.39l.8-14.48h3.14V151.7h11.84Z"/><path class="cls-3" d="M254.39,150.7a22.43,22.43,0,0,1,12.91,3.62q5.31,3.62,6.86,11.16l-4.24.2a12.58,12.58,0,0,0-4.92-8.14,16.27,16.27,0,0,0-10.11-3q-8.49,0-13.7,5.64T236,177.56q0,10.38,4.59,16.72t14.23,6.34a17,17,0,0,0,10-3,12,12,0,0,0,5.17-8.11h4.24a16.67,16.67,0,0,1-6.22,10.71q-5.12,4.06-13.55,4.06-10.14,0-16.35-6.51t-6.21-20a37.89,37.89,0,0,1,2.44-14.21,20.24,20.24,0,0,1,7.47-9.46Q246.75,150.7,254.39,150.7Z"/><path class="cls-3" d="M289.74,203.32V129.13h3.59v30.26a16,16,0,0,1,6.59-6.19,22.11,22.11,0,0,1,10.83-2.5,22.36,22.36,0,0,1,9.21,1.82,15.83,15.83,0,0,1,6.44,5.07,12.36,12.36,0,0,1,2.37,7.49v38.24h-3.89V166.57a10.94,10.94,0,0,0-3.82-8.88q-3.82-3.19-10.41-3.2a24.77,24.77,0,0,0-8.43,1.4,14,14,0,0,0-6.24,4.24,11,11,0,0,0-2.35,7.24v35.95Z"/></g></g></svg>